<?xml version="1.0" encoding="UTF-8" standalone="no"?>
<svg
   viewBox="0 0 105.44173 52.483997"
   height="52.483997"
   width="105.44173"
   xml:space="preserve"
   id="svg2"
   version="1.1"
   sodipodi:docname="elo-logo.svg"
   inkscape:version="1.1 (c68e22c387, 2021-05-23)"
   xmlns:inkscape="http://www.inkscape.org/namespaces/inkscape"
   xmlns:sodipodi="http://sodipodi.sourceforge.net/DTD/sodipodi-0.dtd"
   xmlns="http://www.w3.org/2000/svg"
   xmlns:svg="http://www.w3.org/2000/svg"
   xmlns:rdf="http://www.w3.org/1999/02/22-rdf-syntax-ns#"
   xmlns:cc="http://creativecommons.org/ns#"
   xmlns:dc="http://purl.org/dc/elements/1.1/"><sodipodi:namedview
     pagecolor="#ffffff"
     bordercolor="#666666"
     borderopacity="1"
     objecttolerance="10"
     gridtolerance="10"
     guidetolerance="10"
     inkscape:pageopacity="0"
     inkscape:pageshadow="2"
     inkscape:window-width="2560"
     inkscape:window-height="1057"
     id="namedview90"
     showgrid="false"
     inkscape:zoom="2.3787126"
     inkscape:cx="315.717"
     inkscape:cy="67.89387"
     inkscape:window-x="760"
     inkscape:window-y="-8"
     inkscape:window-maximized="1"
     inkscape:current-layer="g10"
     fit-margin-top="0"
     fit-margin-left="0"
     fit-margin-right="0"
     fit-margin-bottom="0"
     inkscape:pagecheckerboard="0" /><metadata
     id="metadata8"><rdf:RDF><cc:Work
         rdf:about=""><dc:format>image/svg+xml</dc:format><dc:type
           rdf:resource="http://purl.org/dc/dcmitype/StillImage" /><dc:title /></cc:Work></rdf:RDF></metadata><defs
     id="defs6"><clipPath
       id="clipPath20"
       clipPathUnits="userSpaceOnUse"><path
         id="path18"
         d="M 0,595.28 H 595.28 V 0 H 0 Z"
         inkscape:connector-curvature="0" /></clipPath></defs><g
     transform="matrix(1.3333333,0,0,-1.3333333,-217.23894,470.61265)"
     id="g10"><g
       id="g698"
       transform="translate(-28.149497)"><g
         transform="translate(214.9453,324.6582)"
         id="g34"><path
           id="path36"
           style="fill:#ffffff;fill-opacity:1;fill-rule:nonzero;stroke:none"
           d="m 0,0 c -0.004,-0.005 -0.006,-0.007 -0.008,-0.012 l -0.306,0.208 c -0.877,-1.425 -2.243,-2.577 -3.971,-3.324 -3.287,-1.43 -6.332,-1.063 -8.518,0.855 l -0.201,-0.304 c -0.002,0.002 -0.002,0.005 -0.006,0.005 l -3.73,-5.579 c 0.926,-0.642 1.92,-1.189 2.963,-1.624 4.121,-1.71 8.336,-1.63 12.488,0.175 3.002,1.299 5.359,3.285 6.971,5.801 z M -11.643,13.763 C -15.109,12.272 -16.9,9.018 -16.531,5.2 l 14.697,6.327 c -2.525,2.972 -5.816,3.955 -9.809,2.236 M -21.4,-3.231 c -0.352,0.568 -0.829,1.479 -1.116,2.147 -1.695,3.937 -1.777,8.011 -0.345,11.922 1.574,4.291 4.584,7.574 8.468,9.246 4.889,2.104 10.293,1.687 14.977,-1.09 C 3.557,17.288 5.666,14.653 7.268,10.927 7.473,10.45 7.65,9.938 7.826,9.506 Z"
           inkscape:connector-curvature="0" /></g><g
         transform="translate(232.9883,352.9595)"
         id="g38"><path
           id="path40"
           style="fill:#ffffff;fill-opacity:1;fill-rule:nonzero;stroke:none"
           d="m 0,0 v -31.018 l 4.822,-1.953 -2.74,-6.392 -5.322,2.212 c -1.196,0.519 -2.008,1.311 -2.625,2.205 -0.586,0.911 -1.028,2.161 -1.028,3.843 V 0 Z"
           inkscape:connector-curvature="0" /></g><g
         transform="translate(245.4785,329.8447)"
         id="g42"><path
           id="path44"
           style="fill:#ffffff;fill-opacity:1;fill-rule:nonzero;stroke:none"
           d="m 0,0 c 0.004,2.64 1.172,5.009 3.016,6.619 l -4.948,5.515 C -5.287,9.167 -7.398,4.836 -7.404,0.007 c -0.006,-4.834 2.103,-9.17 5.459,-12.144 l 4.939,5.523 C 1.16,-5 0,-2.635 0,0"
           inkscape:connector-curvature="0" /></g><g
         transform="translate(254.2695,321.0415)"
         id="g46"><path
           id="path48"
           style="fill:#ffffff;fill-opacity:1;fill-rule:nonzero;stroke:none"
           d="M 0,0 C -0.973,0.002 -1.91,0.164 -2.787,0.456 L -5.15,-6.572 c 1.615,-0.542 3.347,-0.836 5.144,-0.838 7.832,-0.007 14.375,5.551 15.889,12.94 L 8.621,7.011 C 7.797,3.007 4.248,-0.004 0,0"
           inkscape:connector-curvature="0" /></g><g
         transform="translate(254.291,346.042)"
         id="g50"><path
           id="path52"
           style="fill:#ffffff;fill-opacity:1;fill-rule:nonzero;stroke:none"
           d="m 0,0 c -1.797,0.002 -3.523,-0.29 -5.139,-0.827 l 2.344,-7.032 c 0.877,0.289 1.815,0.451 2.789,0.451 4.258,-0.005 7.807,-3.033 8.611,-7.049 l 7.264,1.475 C 14.377,-5.584 7.842,-0.005 0,0"
           inkscape:connector-curvature="0" /></g></g></g></svg>
