<?xml version="1.0" encoding="UTF-8" standalone="no"?>
<!-- Created with Inkscape (http://www.inkscape.org/) -->

<svg
   width="347.48804mm"
   height="99.892479mm"
   viewBox="0 0 347.48803 99.892479"
   version="1.1"
   id="svg5"
   inkscape:version="1.1 (c68e22c387, 2021-05-23)"
   sodipodi:docname="logo.svg"
   xmlns:inkscape="http://www.inkscape.org/namespaces/inkscape"
   xmlns:sodipodi="http://sodipodi.sourceforge.net/DTD/sodipodi-0.dtd"
   xmlns="http://www.w3.org/2000/svg"
   xmlns:svg="http://www.w3.org/2000/svg">
  <sodipodi:namedview
     id="namedview7"
     pagecolor="#505050"
     bordercolor="#eeeeee"
     borderopacity="1"
     inkscape:pageshadow="0"
     inkscape:pageopacity="0"
     inkscape:pagecheckerboard="0"
     inkscape:document-units="mm"
     showgrid="false"
     inkscape:zoom="0.3884119"
     inkscape:cx="590.86758"
     inkscape:cy="263.89511"
     inkscape:window-width="1920"
     inkscape:window-height="1017"
     inkscape:window-x="-8"
     inkscape:window-y="-8"
     inkscape:window-maximized="1"
     inkscape:current-layer="layer1"
     inkscape:snap-text-baseline="false" />
  <defs
     id="defs2" />
  <g
     inkscape:label="Camada 1"
     inkscape:groupmode="layer"
     id="layer1"
     transform="translate(-84.36744,-33.037844)">
    <g
       id="g5406"
       transform="matrix(0.72775935,0,0,0.72775935,48.251207,27.336784)">
      <path
         style="fill:#ff6600;stroke:none;stroke-width:0.275717px;stroke-linecap:butt;stroke-linejoin:miter;stroke-opacity:1"
         d="M 51.770642,50.408255 65.08575,7.8337155 c 0,0 22.755971,17.7110085 23.125837,27.9288995 0.369864,10.21789 -4.262763,11.239677 -4.262763,11.239677 z"
         id="path3719"
         sodipodi:nodetypes="ccscc" />
      <path
         style="fill:#ffccaa;stroke:none;stroke-width:0.264583px;stroke-linecap:butt;stroke-linejoin:miter;stroke-opacity:1"
         d="m 104.99316,141.68807 c 0,0 -25.528051,-24.20381 -40.279859,-34.74082 C 50.408256,96.729355 48.543028,85.2665 50.067661,68.800458 L 51.770642,50.408255 111.0344,70.162842 Z"
         id="path1414"
         sodipodi:nodetypes="cssccc" />
      <path
         style="fill:#ffccaa;stroke:none;stroke-width:0.264583px;stroke-linecap:butt;stroke-linejoin:miter;stroke-opacity:1"
         d="m 104.99316,141.68807 c 0,0 27.39266,-24.20381 42.14446,-34.74082 14.30505,-10.217895 16.17028,-21.68075 14.64564,-38.146792 l -1.70298,-18.392203 -59.26376,19.754587 z"
         id="path2528"
         sodipodi:nodetypes="cssccc" />
      <path
         style="fill:#aa4400;stroke:none;stroke-width:0.16575px;stroke-linecap:butt;stroke-linejoin:miter;stroke-opacity:1"
         d="m 60.285551,49.148813 8.321495,-24.619186 c 0,0 14.221719,10.241581 14.452874,16.150187 0.231151,5.908605 -2.664085,6.499464 -2.664085,6.499464 z"
         id="path4805"
         sodipodi:nodetypes="ccscc" />
      <path
         style="fill:#ff6600;stroke:none;stroke-width:0.275717px;stroke-linecap:butt;stroke-linejoin:miter;stroke-opacity:1"
         d="M 160.08028,50.408255 146.76517,7.8337155 c 0,0 -22.75597,17.7110085 -23.12584,27.9288995 -0.36986,10.21789 4.26277,11.239677 4.26277,11.239677 z"
         id="path4825"
         sodipodi:nodetypes="ccscc" />
      <path
         style="fill:#aa4400;stroke:none;stroke-width:0.16575px;stroke-linecap:butt;stroke-linejoin:miter;stroke-opacity:1"
         d="m 151.56537,49.148813 -8.32149,-24.619186 c 0,0 -14.22172,10.241581 -14.45288,16.150187 -0.23115,5.908605 2.66409,6.499464 2.66409,6.499464 z"
         id="path4827"
         sodipodi:nodetypes="ccscc" />
      <path
         id="rect868"
         style="opacity:1;fill:#ff6600;stroke-width:3.19414"
         d="m 51.770643,50.408255 c 33.437965,-12.88203 69.422657,-13.454859 108.309637,0 -18.8165,19.098123 -36.27062,52.320085 -55.08712,91.279815 C 95.009999,111.40541 75.362349,75.247494 51.770643,50.408255 Z"
         sodipodi:nodetypes="cccc" />
      <circle
         style="fill:#1a1a1a;stroke:none;stroke-width:1.37583"
         id="path4853-8"
         cx="105.07397"
         cy="139.4742"
         r="5.6198392" />
    </g>
    <text
       xml:space="preserve"
       style="font-style:normal;font-weight:normal;font-size:12.5753px;line-height:1.25;font-family:sans-serif;fill:#ffffff;fill-opacity:1;stroke:none;stroke-width:0.314382"
       x="176.97003"
       y="96.395805"
       id="text930"><tspan
         sodipodi:role="line"
         id="tspan928"
         style="font-style:normal;font-variant:normal;font-weight:normal;font-stretch:normal;font-size:30.1807px;font-family:Techfont;-inkscape-font-specification:'Techfont, Normal';font-variant-ligatures:normal;font-variant-caps:normal;font-variant-numeric:normal;font-variant-east-asian:normal;fill:#ffffff;stroke-width:0.314382"
         x="176.97003"
         y="96.395805">Single Experience</tspan></text>
  </g>
</svg>
